<mxfile host="65bd71144e">
    <diagram name="DADM-Future-Architecture" id="dadm-future-arch">
        <mxGraphModel dx="1618" dy="847" grid="1" gridSize="10" guides="1" tooltips="1" connect="1" arrows="1" fold="1" page="1" pageScale="1" pageWidth="1800" pageHeight="1400" math="0" shadow="0">
            <root>
                <mxCell id="0"/>
                <mxCell id="1" parent="0"/>
                <mxCell id="title" value="DADM - Future State Architecture with AI Integration" style="text;html=1;strokeColor=none;fillColor=none;align=center;verticalAlign=middle;whiteSpace=wrap;rounded=0;fontSize=24;fontStyle=1;" parent="1" vertex="1">
                    <mxGeometry x="700" y="20" width="400" height="40" as="geometry"/>
                </mxCell>
                <mxCell id="legend-bg" value="" style="rounded=1;whiteSpace=wrap;html=1;fillColor=#f8f9fa;strokeColor=#dee2e6;" parent="1" vertex="1">
                    <mxGeometry x="20" y="80" width="200" height="280" as="geometry"/>
                </mxCell>
                <mxCell id="legend-title" value="Legend" style="text;html=1;strokeColor=none;fillColor=none;align=center;verticalAlign=middle;whiteSpace=wrap;rounded=0;fontSize=14;fontStyle=1;" parent="1" vertex="1">
                    <mxGeometry x="80" y="90" width="80" height="20" as="geometry"/>
                </mxCell>
                <mxCell id="legend-ui" value="UI/Frontend Layer" style="rounded=1;whiteSpace=wrap;html=1;fillColor=#dae8fc;strokeColor=#6c8ebf;" parent="1" vertex="1">
                    <mxGeometry x="30" y="120" width="180" height="20" as="geometry"/>
                </mxCell>
                <mxCell id="legend-gateway" value="API Gateway Layer" style="rounded=1;whiteSpace=wrap;html=1;fillColor=#e1d5e7;strokeColor=#9673a6;" parent="1" vertex="1">
                    <mxGeometry x="30" y="150" width="180" height="20" as="geometry"/>
                </mxCell>
                <mxCell id="legend-core" value="Core Services" style="rounded=1;whiteSpace=wrap;html=1;fillColor=#d5e8d4;strokeColor=#82b366;" parent="1" vertex="1">
                    <mxGeometry x="30" y="180" width="180" height="20" as="geometry"/>
                </mxCell>
                <mxCell id="legend-ai" value="AI Services" style="rounded=1;whiteSpace=wrap;html=1;fillColor=#fff2cc;strokeColor=#d6b656;" parent="1" vertex="1">
                    <mxGeometry x="30" y="210" width="180" height="20" as="geometry"/>
                </mxCell>
                <mxCell id="legend-data" value="Data Services" style="rounded=1;whiteSpace=wrap;html=1;fillColor=#f8cecc;strokeColor=#b85450;" parent="1" vertex="1">
                    <mxGeometry x="30" y="240" width="180" height="20" as="geometry"/>
                </mxCell>
                <mxCell id="legend-external" value="External Services" style="rounded=1;whiteSpace=wrap;html=1;fillColor=#ffe6cc;strokeColor=#d79b00;" parent="1" vertex="1">
                    <mxGeometry x="30" y="270" width="180" height="20" as="geometry"/>
                </mxCell>
                <mxCell id="legend-new" value="✨ New Components" style="rounded=1;whiteSpace=wrap;html=1;fillColor=#ccffcc;strokeColor=#00cc00;strokeWidth=2;" parent="1" vertex="1">
                    <mxGeometry x="30" y="300" width="180" height="20" as="geometry"/>
                </mxCell>
                <mxCell id="legend-improved" value="🔧 Improved Components" style="rounded=1;whiteSpace=wrap;html=1;fillColor=#ccccff;strokeColor=#0000ff;strokeWidth=2;" parent="1" vertex="1">
                    <mxGeometry x="30" y="330" width="180" height="20" as="geometry"/>
                </mxCell>
                <mxCell id="ui-layer" value="UI/Frontend Layer" style="rounded=1;whiteSpace=wrap;html=1;fillColor=#dae8fc;strokeColor=#6c8ebf;fontSize=16;fontStyle=1;" parent="1" vertex="1">
                    <mxGeometry x="280" y="120" width="1480" height="40" as="geometry"/>
                </mxCell>
                <mxCell id="react-ui" value="Enhanced React UI&#xa;🔧 Modern Design System&#xa;🔧 Real-time Updates&#xa;✨ User Accounts" style="rounded=1;whiteSpace=wrap;html=1;fillColor=#ccccff;strokeColor=#0000ff;strokeWidth=2;" parent="1" vertex="1">
                    <mxGeometry x="300" y="180" width="160" height="100" as="geometry"/>
                </mxCell>
                <mxCell id="bpmn-studio" value="BPMN AI Studio&#xa;✨ Conversational Modeling&#xa;✨ Real-time Collaboration&#xa;✨ AI-Assisted Design" style="rounded=1;whiteSpace=wrap;html=1;fillColor=#ccffcc;strokeColor=#00cc00;strokeWidth=2;" parent="1" vertex="1">
                    <mxGeometry x="500" y="180" width="160" height="100" as="geometry"/>
                </mxCell>
                <mxCell id="analytics-ui" value="Analytics Dashboard&#xa;✨ Interactive Visualizations&#xa;✨ Jupyter Integration&#xa;✨ AI Insights" style="rounded=1;whiteSpace=wrap;html=1;fillColor=#ccffcc;strokeColor=#00cc00;strokeWidth=2;" parent="1" vertex="1">
                    <mxGeometry x="700" y="180" width="160" height="100" as="geometry"/>
                </mxCell>
                <mxCell id="process-monitor" value="Process Monitor&#xa;🔧 Real-time Tracking&#xa;✨ Predictive Analytics&#xa;✨ Performance Insights" style="rounded=1;whiteSpace=wrap;html=1;fillColor=#ccccff;strokeColor=#0000ff;strokeWidth=2;" parent="1" vertex="1">
                    <mxGeometry x="900" y="180" width="160" height="100" as="geometry"/>
                </mxCell>
                <mxCell id="admin-console" value="Admin Console&#xa;✨ User Management&#xa;✨ System Configuration&#xa;✨ Security Controls" style="rounded=1;whiteSpace=wrap;html=1;fillColor=#ccffcc;strokeColor=#00cc00;strokeWidth=2;" parent="1" vertex="1">
                    <mxGeometry x="1100" y="180" width="160" height="100" as="geometry"/>
                </mxCell>
                <mxCell id="mobile-app" value="Mobile App&#xa;✨ Process Approval&#xa;✨ Notifications&#xa;✨ Quick Actions" style="rounded=1;whiteSpace=wrap;html=1;fillColor=#ccffcc;strokeColor=#00cc00;strokeWidth=2;" parent="1" vertex="1">
                    <mxGeometry x="1300" y="180" width="160" height="100" as="geometry"/>
                </mxCell>
                <mxCell id="gateway-layer" value="API Gateway &amp; Security Layer" style="rounded=1;whiteSpace=wrap;html=1;fillColor=#e1d5e7;strokeColor=#9673a6;fontSize=16;fontStyle=1;" parent="1" vertex="1">
                    <mxGeometry x="280" y="320" width="1480" height="40" as="geometry"/>
                </mxCell>
                <mxCell id="api-gateway" value="API Gateway&#xa;✨ Load Balancing&#xa;✨ Rate Limiting&#xa;✨ Request Routing" style="rounded=1;whiteSpace=wrap;html=1;fillColor=#ccffcc;strokeColor=#00cc00;strokeWidth=2;" parent="1" vertex="1">
                    <mxGeometry x="300" y="380" width="160" height="100" as="geometry"/>
                </mxCell>
                <mxCell id="auth-service" value="Auth Service&#xa;✨ JWT Tokens&#xa;✨ OAuth2/OIDC&#xa;✨ MFA Support" style="rounded=1;whiteSpace=wrap;html=1;fillColor=#ccffcc;strokeColor=#00cc00;strokeWidth=2;" parent="1" vertex="1">
                    <mxGeometry x="500" y="380" width="160" height="100" as="geometry"/>
                </mxCell>
                <mxCell id="security-service" value="Security Service&#xa;✨ RBAC&#xa;✨ Data Encryption&#xa;✨ Audit Logging" style="rounded=1;whiteSpace=wrap;html=1;fillColor=#ccffcc;strokeColor=#00cc00;strokeWidth=2;" parent="1" vertex="1">
                    <mxGeometry x="700" y="380" width="160" height="100" as="geometry"/>
                </mxCell>
                <mxCell id="session-manager" value="Session Manager&#xa;✨ Redis Store&#xa;✨ WebSocket Manager&#xa;✨ Real-time Sync" style="rounded=1;whiteSpace=wrap;html=1;fillColor=#ccffcc;strokeColor=#00cc00;strokeWidth=2;" parent="1" vertex="1">
                    <mxGeometry x="900" y="380" width="160" height="100" as="geometry"/>
                </mxCell>
                <mxCell id="core-layer" value="Core Business Services" style="rounded=1;whiteSpace=wrap;html=1;fillColor=#d5e8d4;strokeColor=#82b366;fontSize=16;fontStyle=1;" parent="1" vertex="1">
                    <mxGeometry x="280" y="520" width="1480" height="40" as="geometry"/>
                </mxCell>
                <mxCell id="process-engine" value="Process Engine&#xa;🔧 Camunda Integration&#xa;✨ Process Optimization&#xa;✨ Auto-scaling" style="rounded=1;whiteSpace=wrap;html=1;fillColor=#ccccff;strokeColor=#0000ff;strokeWidth=2;" parent="1" vertex="1">
                    <mxGeometry x="300" y="580" width="140" height="100" as="geometry"/>
                </mxCell>
                <mxCell id="bpmn-service" value="BPMN Service&#xa;🔧 Model Management&#xa;✨ Version Control&#xa;✨ Validation Engine" style="rounded=1;whiteSpace=wrap;html=1;fillColor=#ccccff;strokeColor=#0000ff;strokeWidth=2;" parent="1" vertex="1">
                    <mxGeometry x="460" y="580" width="140" height="100" as="geometry"/>
                </mxCell>
                <mxCell id="task-service" value="Task Service&#xa;✨ Assignment Engine&#xa;✨ SLA Monitoring&#xa;✨ Escalation Rules" style="rounded=1;whiteSpace=wrap;html=1;fillColor=#ccffcc;strokeColor=#00cc00;strokeWidth=2;" parent="1" vertex="1">
                    <mxGeometry x="620" y="580" width="140" height="100" as="geometry"/>
                </mxCell>
                <mxCell id="notification-service" value="Notification Service&#xa;✨ Multi-channel&#xa;✨ Template Engine&#xa;✨ Delivery Tracking" style="rounded=1;whiteSpace=wrap;html=1;fillColor=#ccffcc;strokeColor=#00cc00;strokeWidth=2;" parent="1" vertex="1">
                    <mxGeometry x="780" y="580" width="140" height="100" as="geometry"/>
                </mxCell>
                <mxCell id="user-service" value="User Service&#xa;✨ Profile Management&#xa;✨ Preferences&#xa;✨ Team Management" style="rounded=1;whiteSpace=wrap;html=1;fillColor=#ccffcc;strokeColor=#00cc00;strokeWidth=2;" parent="1" vertex="1">
                    <mxGeometry x="940" y="580" width="140" height="100" as="geometry"/>
                </mxCell>
                <mxCell id="config-service" value="Config Service&#xa;✨ Dynamic Settings&#xa;✨ Feature Flags&#xa;✨ Environment Mgmt" style="rounded=1;whiteSpace=wrap;html=1;fillColor=#ccffcc;strokeColor=#00cc00;strokeWidth=2;" parent="1" vertex="1">
                    <mxGeometry x="1100" y="580" width="140" height="100" as="geometry"/>
                </mxCell>
                <mxCell id="ai-layer" value="AI &amp; Intelligence Services" style="rounded=1;whiteSpace=wrap;html=1;fillColor=#fff2cc;strokeColor=#d6b656;fontSize=16;fontStyle=1;" parent="1" vertex="1">
                    <mxGeometry x="280" y="720" width="1480" height="40" as="geometry"/>
                </mxCell>
                <mxCell id="bpmn-ai-agent" value="BPMN AI Agent&#xa;✨ Conversational Modeling&#xa;✨ Process Generation&#xa;✨ Model Optimization" style="rounded=1;whiteSpace=wrap;html=1;fillColor=#ccffcc;strokeColor=#00cc00;strokeWidth=2;" parent="1" vertex="1">
                    <mxGeometry x="300" y="780" width="140" height="100" as="geometry"/>
                </mxCell>
                <mxCell id="prompt-service" value="Prompt Service&#xa;✨ Template Library&#xa;✨ Context Management&#xa;✨ Optimization Engine" style="rounded=1;whiteSpace=wrap;html=1;fillColor=#ccffcc;strokeColor=#00cc00;strokeWidth=2;" parent="1" vertex="1">
                    <mxGeometry x="460" y="780" width="140" height="100" as="geometry"/>
                </mxCell>
                <mxCell id="ai-tool-manager" value="AI Tool Manager&#xa;✨ Multi-LLM Support&#xa;✨ Cost Optimization&#xa;✨ Fallback Handling" style="rounded=1;whiteSpace=wrap;html=1;fillColor=#ccffcc;strokeColor=#00cc00;strokeWidth=2;" parent="1" vertex="1">
                    <mxGeometry x="620" y="780" width="140" height="100" as="geometry"/>
                </mxCell>
                <mxCell id="analysis-ai" value="Analysis AI&#xa;✨ Data Insights&#xa;✨ Predictive Analytics&#xa;✨ Anomaly Detection" style="rounded=1;whiteSpace=wrap;html=1;fillColor=#ccffcc;strokeColor=#00cc00;strokeWidth=2;" parent="1" vertex="1">
                    <mxGeometry x="780" y="780" width="140" height="100" as="geometry"/>
                </mxCell>
                <mxCell id="knowledge-engine" value="Knowledge Engine&#xa;✨ RAG Implementation&#xa;✨ Semantic Search&#xa;✨ Context Awareness" style="rounded=1;whiteSpace=wrap;html=1;fillColor=#ccffcc;strokeColor=#00cc00;strokeWidth=2;" parent="1" vertex="1">
                    <mxGeometry x="940" y="780" width="140" height="100" as="geometry"/>
                </mxCell>
                <mxCell id="ml-pipeline" value="ML Pipeline&#xa;✨ Model Training&#xa;✨ A/B Testing&#xa;✨ Performance Monitoring" style="rounded=1;whiteSpace=wrap;html=1;fillColor=#ccffcc;strokeColor=#00cc00;strokeWidth=2;" parent="1" vertex="1">
                    <mxGeometry x="1100" y="780" width="140" height="100" as="geometry"/>
                </mxCell>
                <mxCell id="jupyter-service" value="Jupyter Service&#xa;✨ Notebook Management&#xa;✨ Kernel Orchestration&#xa;✨ Collaborative Editing" style="rounded=1;whiteSpace=wrap;html=1;fillColor=#ccffcc;strokeColor=#00cc00;strokeWidth=2;" parent="1" vertex="1">
                    <mxGeometry x="1260" y="780" width="140" height="100" as="geometry"/>
                </mxCell>
                <mxCell id="data-layer" value="Data Management &amp; Analytics Services" style="rounded=1;whiteSpace=wrap;html=1;fillColor=#f8cecc;strokeColor=#b85450;fontSize=16;fontStyle=1;" parent="1" vertex="1">
                    <mxGeometry x="280" y="920" width="1480" height="40" as="geometry"/>
                </mxCell>
                <mxCell id="data-manager" value="Data Manager&#xa;✨ Multi-source Integration&#xa;✨ ETL Pipelines&#xa;✨ Data Quality" style="rounded=1;whiteSpace=wrap;html=1;fillColor=#ccffcc;strokeColor=#00cc00;strokeWidth=2;" parent="1" vertex="1">
                    <mxGeometry x="300" y="980" width="140" height="100" as="geometry"/>
                </mxCell>
                <mxCell id="analysis-engine" value="Analysis Engine&#xa;🔧 Enhanced Storage&#xa;✨ Real-time Processing&#xa;✨ Distributed Computing" style="rounded=1;whiteSpace=wrap;html=1;fillColor=#ccccff;strokeColor=#0000ff;strokeWidth=2;" parent="1" vertex="1">
                    <mxGeometry x="460" y="980" width="140" height="100" as="geometry"/>
                </mxCell>
                <mxCell id="vector-manager" value="Vector Store Manager&#xa;🔧 Enhanced Qdrant&#xa;✨ Multi-tenant Support&#xa;✨ Similarity Search" style="rounded=1;whiteSpace=wrap;html=1;fillColor=#ccccff;strokeColor=#0000ff;strokeWidth=2;" parent="1" vertex="1">
                    <mxGeometry x="620" y="980" width="140" height="100" as="geometry"/>
                </mxCell>
                <mxCell id="graph-service" value="Graph DB Service&#xa;🔧 Enhanced Neo4j&#xa;✨ Relationship Analytics&#xa;✨ Graph Algorithms" style="rounded=1;whiteSpace=wrap;html=1;fillColor=#ccccff;strokeColor=#0000ff;strokeWidth=2;" parent="1" vertex="1">
                    <mxGeometry x="780" y="980" width="140" height="100" as="geometry"/>
                </mxCell>
                <mxCell id="timeseries-db" value="Time Series DB&#xa;✨ Metrics Storage&#xa;✨ Event Streaming&#xa;✨ Real-time Analytics" style="rounded=1;whiteSpace=wrap;html=1;fillColor=#ccffcc;strokeColor=#00cc00;strokeWidth=2;" parent="1" vertex="1">
                    <mxGeometry x="940" y="980" width="140" height="100" as="geometry"/>
                </mxCell>
                <mxCell id="backup-service" value="Backup Service&#xa;✨ Automated Backups&#xa;✨ Point-in-time Recovery&#xa;✨ Cross-region Replication" style="rounded=1;whiteSpace=wrap;html=1;fillColor=#ccffcc;strokeColor=#00cc00;strokeWidth=2;" parent="1" vertex="1">
                    <mxGeometry x="1100" y="980" width="140" height="100" as="geometry"/>
                </mxCell>
                <mxCell id="external-layer" value="External Services &amp; Infrastructure" style="rounded=1;whiteSpace=wrap;html=1;fillColor=#ffe6cc;strokeColor=#d79b00;fontSize=16;fontStyle=1;" parent="1" vertex="1">
                    <mxGeometry x="280" y="1120" width="1480" height="40" as="geometry"/>
                </mxCell>
                <mxCell id="camunda-cluster" value="Camunda Cluster&#xa;🔧 High Availability&#xa;✨ Auto-scaling&#xa;✨ Performance Tuned" style="rounded=1;whiteSpace=wrap;html=1;fillColor=#ccccff;strokeColor=#0000ff;strokeWidth=2;" parent="1" vertex="1">
                    <mxGeometry x="300" y="1180" width="140" height="100" as="geometry"/>
                </mxCell>
                <mxCell id="postgres-cluster" value="PostgreSQL Cluster&#xa;🔧 Master-Slave Setup&#xa;✨ Automated Failover&#xa;✨ Connection Pooling" style="rounded=1;whiteSpace=wrap;html=1;fillColor=#ccccff;strokeColor=#0000ff;strokeWidth=2;" parent="1" vertex="1">
                    <mxGeometry x="460" y="1180" width="140" height="100" as="geometry"/>
                </mxCell>
                <mxCell id="redis-cluster" value="Redis Cluster&#xa;✨ Caching Layer&#xa;✨ Session Store&#xa;✨ Real-time Data" style="rounded=1;whiteSpace=wrap;html=1;fillColor=#ccffcc;strokeColor=#00cc00;strokeWidth=2;" parent="1" vertex="1">
                    <mxGeometry x="620" y="1180" width="140" height="100" as="geometry"/>
                </mxCell>
                <mxCell id="kafka-cluster" value="Kafka Cluster&#xa;✨ Event Streaming&#xa;✨ Message Bus&#xa;✨ Real-time Processing" style="rounded=1;whiteSpace=wrap;html=1;fillColor=#ccffcc;strokeColor=#00cc00;strokeWidth=2;" parent="1" vertex="1">
                    <mxGeometry x="780" y="1180" width="140" height="100" as="geometry"/>
                </mxCell>
                <mxCell id="elasticsearch" value="Elasticsearch&#xa;✨ Full-text Search&#xa;✨ Log Analytics&#xa;✨ Monitoring Data" style="rounded=1;whiteSpace=wrap;html=1;fillColor=#ccffcc;strokeColor=#00cc00;strokeWidth=2;" parent="1" vertex="1">
                    <mxGeometry x="940" y="1180" width="140" height="100" as="geometry"/>
                </mxCell>
                <mxCell id="ai-gateway" value="AI Provider Gateway&#xa;✨ Multi-LLM Support&#xa;✨ Load Balancing&#xa;✨ Cost Optimization" style="rounded=1;whiteSpace=wrap;html=1;fillColor=#ccffcc;strokeColor=#00cc00;strokeWidth=2;" parent="1" vertex="1">
                    <mxGeometry x="1100" y="1180" width="140" height="100" as="geometry"/>
                </mxCell>
                <mxCell id="monitoring-stack" value="Monitoring Stack&#xa;✨ Prometheus/Grafana&#xa;✨ Distributed Tracing&#xa;✨ Log Aggregation" style="rounded=1;whiteSpace=wrap;html=1;fillColor=#ccffcc;strokeColor=#00cc00;strokeWidth=2;" parent="1" vertex="1">
                    <mxGeometry x="1260" y="1180" width="140" height="100" as="geometry"/>
                </mxCell>
                <mxCell id="conn1" value="HTTPS/WSS" style="endArrow=classic;html=1;rounded=0;exitX=0.5;exitY=1;exitDx=0;exitDy=0;entryX=0.5;entryY=0;entryDx=0;entryDy=0;" parent="1" source="ui-layer" target="api-gateway" edge="1">
                    <mxGeometry width="50" height="50" relative="1" as="geometry">
                        <mxPoint x="900" y="400" as="sourcePoint"/>
                        <mxPoint x="950" y="350" as="targetPoint"/>
                    </mxGeometry>
                </mxCell>
                <mxCell id="conn2" value="gRPC/REST" style="endArrow=classic;html=1;rounded=0;exitX=0.5;exitY=1;exitDx=0;exitDy=0;entryX=0.5;entryY=0;entryDx=0;entryDy=0;" parent="1" source="gateway-layer" target="core-layer" edge="1">
                    <mxGeometry width="50" height="50" relative="1" as="geometry">
                        <mxPoint x="900" y="500" as="sourcePoint"/>
                        <mxPoint x="950" y="450" as="targetPoint"/>
                    </mxGeometry>
                </mxCell>
                <mxCell id="conn3" value="AI Integration" style="endArrow=classic;html=1;rounded=0;exitX=0.5;exitY=1;exitDx=0;exitDy=0;entryX=0.5;entryY=0;entryDx=0;entryDy=0;" parent="1" source="core-layer" target="ai-layer" edge="1">
                    <mxGeometry width="50" height="50" relative="1" as="geometry">
                        <mxPoint x="900" y="700" as="sourcePoint"/>
                        <mxPoint x="950" y="650" as="targetPoint"/>
                    </mxGeometry>
                </mxCell>
                <mxCell id="conn4" value="Data Pipeline" style="endArrow=classic;html=1;rounded=0;exitX=0.5;exitY=1;exitDx=0;exitDy=0;entryX=0.5;entryY=0;entryDx=0;entryDy=0;" parent="1" source="ai-layer" target="data-layer" edge="1">
                    <mxGeometry width="50" height="50" relative="1" as="geometry">
                        <mxPoint x="900" y="900" as="sourcePoint"/>
                        <mxPoint x="950" y="850" as="targetPoint"/>
                    </mxGeometry>
                </mxCell>
                <mxCell id="conn5" value="Infrastructure" style="endArrow=classic;html=1;rounded=0;exitX=0.5;exitY=1;exitDx=0;exitDy=0;entryX=0.5;entryY=0;entryDx=0;entryDy=0;" parent="1" source="data-layer" target="external-layer" edge="1">
                    <mxGeometry width="50" height="50" relative="1" as="geometry">
                        <mxPoint x="900" y="1100" as="sourcePoint"/>
                        <mxPoint x="950" y="1050" as="targetPoint"/>
                    </mxGeometry>
                </mxCell>
                <mxCell id="improvements-panel" value="" style="rounded=1;whiteSpace=wrap;html=1;fillColor=#e6ffe6;strokeColor=#00cc00;" parent="1" vertex="1">
                    <mxGeometry x="1500" y="180" width="280" height="1100" as="geometry"/>
                </mxCell>
                <mxCell id="improvements-title" value="🚀 Key Improvements &amp; Features" style="text;html=1;strokeColor=none;fillColor=none;align=center;verticalAlign=middle;whiteSpace=wrap;rounded=0;fontSize=16;fontStyle=1;" parent="1" vertex="1">
                    <mxGeometry x="1520" y="190" width="240" height="30" as="geometry"/>
                </mxCell>
                <mxCell id="improvement1" value="1. ARCHITECTURE DECOUPLING" style="text;html=1;strokeColor=none;fillColor=#ccffcc;align=left;verticalAlign=top;whiteSpace=wrap;rounded=1;fontSize=11;fontStyle=1;" parent="1" vertex="1">
                    <mxGeometry x="1520" y="230" width="240" height="20" as="geometry"/>
                </mxCell>
                <mxCell id="improvement1-detail" value="✓ Microservices architecture&#xa;✓ API Gateway pattern&#xa;✓ Service mesh implementation&#xa;✓ Event-driven communication" style="text;html=1;strokeColor=none;fillColor=none;align=left;verticalAlign=top;whiteSpace=wrap;rounded=0;fontSize=9;" parent="1" vertex="1">
                    <mxGeometry x="1530" y="255" width="220" height="50" as="geometry"/>
                </mxCell>
                <mxCell id="improvement2" value="2. BPMN AI INTEGRATION" style="text;html=1;strokeColor=none;fillColor=#ccffcc;align=left;verticalAlign=top;whiteSpace=wrap;rounded=1;fontSize=11;fontStyle=1;" parent="1" vertex="1">
                    <mxGeometry x="1520" y="315" width="240" height="20" as="geometry"/>
                </mxCell>
                <mxCell id="improvement2-detail" value="✓ Conversational process modeling&#xa;✓ Real-time BPMN generation&#xa;✓ AI-assisted optimization&#xa;✓ Natural language interface" style="text;html=1;strokeColor=none;fillColor=none;align=left;verticalAlign=top;whiteSpace=wrap;rounded=0;fontSize=9;" parent="1" vertex="1">
                    <mxGeometry x="1530" y="340" width="220" height="50" as="geometry"/>
                </mxCell>
                <mxCell id="improvement3" value="3. ENHANCED DATA MANAGEMENT" style="text;html=1;strokeColor=none;fillColor=#ccffcc;align=left;verticalAlign=top;whiteSpace=wrap;rounded=1;fontSize=11;fontStyle=1;" parent="1" vertex="1">
                    <mxGeometry x="1520" y="400" width="240" height="20" as="geometry"/>
                </mxCell>
                <mxCell id="improvement3-detail" value="✓ Multi-database support&#xa;✓ Automated backup/recovery&#xa;✓ Data lineage tracking&#xa;✓ Real-time synchronization" style="text;html=1;strokeColor=none;fillColor=none;align=left;verticalAlign=top;whiteSpace=wrap;rounded=0;fontSize=9;" parent="1" vertex="1">
                    <mxGeometry x="1530" y="425" width="220" height="50" as="geometry"/>
                </mxCell>
                <mxCell id="improvement4" value="4. SECURITY &amp; USER MANAGEMENT" style="text;html=1;strokeColor=none;fillColor=#ccffcc;align=left;verticalAlign=top;whiteSpace=wrap;rounded=1;fontSize=11;fontStyle=1;" parent="1" vertex="1">
                    <mxGeometry x="1520" y="485" width="240" height="20" as="geometry"/>
                </mxCell>
                <mxCell id="improvement4-detail" value="✓ OAuth2/OIDC integration&#xa;✓ Role-based access control&#xa;✓ End-to-end encryption&#xa;✓ Audit logging" style="text;html=1;strokeColor=none;fillColor=none;align=left;verticalAlign=top;whiteSpace=wrap;rounded=0;fontSize=9;" parent="1" vertex="1">
                    <mxGeometry x="1530" y="510" width="220" height="50" as="geometry"/>
                </mxCell>
                <mxCell id="improvement5" value="5. AI TOOL ECOSYSTEM" style="text;html=1;strokeColor=none;fillColor=#ccffcc;align=left;verticalAlign=top;whiteSpace=wrap;rounded=1;fontSize=11;fontStyle=1;" parent="1" vertex="1">
                    <mxGeometry x="1520" y="570" width="240" height="20" as="geometry"/>
                </mxCell>
                <mxCell id="improvement5-detail" value="✓ Multi-LLM provider support&#xa;✓ Prompt optimization engine&#xa;✓ Cost monitoring/control&#xa;✓ Fallback mechanisms" style="text;html=1;strokeColor=none;fillColor=none;align=left;verticalAlign=top;whiteSpace=wrap;rounded=0;fontSize=9;" parent="1" vertex="1">
                    <mxGeometry x="1530" y="595" width="220" height="50" as="geometry"/>
                </mxCell>
                <mxCell id="improvement6" value="6. ADVANCED ANALYTICS" style="text;html=1;strokeColor=none;fillColor=#ccffcc;align=left;verticalAlign=top;whiteSpace=wrap;rounded=1;fontSize=11;fontStyle=1;" parent="1" vertex="1">
                    <mxGeometry x="1520" y="655" width="240" height="20" as="geometry"/>
                </mxCell>
                <mxCell id="improvement6-detail" value="✓ Jupyter notebook integration&#xa;✓ Real-time analytics&#xa;✓ Predictive modeling&#xa;✓ Interactive visualizations" style="text;html=1;strokeColor=none;fillColor=none;align=left;verticalAlign=top;whiteSpace=wrap;rounded=0;fontSize=9;" parent="1" vertex="1">
                    <mxGeometry x="1530" y="680" width="220" height="50" as="geometry"/>
                </mxCell>
                <mxCell id="improvement7" value="7. SCALABILITY &amp; RELIABILITY" style="text;html=1;strokeColor=none;fillColor=#ccffcc;align=left;verticalAlign=top;whiteSpace=wrap;rounded=1;fontSize=11;fontStyle=1;" parent="1" vertex="1">
                    <mxGeometry x="1520" y="740" width="240" height="20" as="geometry"/>
                </mxCell>
                <mxCell id="improvement7-detail" value="✓ Horizontal auto-scaling&#xa;✓ Load balancing&#xa;✓ Circuit breakers&#xa;✓ Health monitoring" style="text;html=1;strokeColor=none;fillColor=none;align=left;verticalAlign=top;whiteSpace=wrap;rounded=0;fontSize=9;" parent="1" vertex="1">
                    <mxGeometry x="1530" y="765" width="220" height="50" as="geometry"/>
                </mxCell>
                <mxCell id="improvement8" value="8. DEPLOYMENT &amp; DEVOPS" style="text;html=1;strokeColor=none;fillColor=#ccffcc;align=left;verticalAlign=top;whiteSpace=wrap;rounded=1;fontSize=11;fontStyle=1;" parent="1" vertex="1">
                    <mxGeometry x="1520" y="825" width="240" height="20" as="geometry"/>
                </mxCell>
                <mxCell id="improvement8-detail" value="✓ Kubernetes orchestration&#xa;✓ CI/CD pipelines&#xa;✓ Infrastructure as code&#xa;✓ Blue-green deployments" style="text;html=1;strokeColor=none;fillColor=none;align=left;verticalAlign=top;whiteSpace=wrap;rounded=0;fontSize=9;" parent="1" vertex="1">
                    <mxGeometry x="1530" y="850" width="220" height="50" as="geometry"/>
                </mxCell>
                <mxCell id="improvement9" value="9. USER EXPERIENCE" style="text;html=1;strokeColor=none;fillColor=#ccffcc;align=left;verticalAlign=top;whiteSpace=wrap;rounded=1;fontSize=11;fontStyle=1;" parent="1" vertex="1">
                    <mxGeometry x="1520" y="910" width="240" height="20" as="geometry"/>
                </mxCell>
                <mxCell id="improvement9-detail" value="✓ Modern design system&#xa;✓ Real-time collaboration&#xa;✓ Mobile accessibility&#xa;✓ Personalized dashboards" style="text;html=1;strokeColor=none;fillColor=none;align=left;verticalAlign=top;whiteSpace=wrap;rounded=0;fontSize=9;" parent="1" vertex="1">
                    <mxGeometry x="1530" y="935" width="220" height="50" as="geometry"/>
                </mxCell>
                <mxCell id="improvement10" value="10. MONITORING &amp; OBSERVABILITY" style="text;html=1;strokeColor=none;fillColor=#ccffcc;align=left;verticalAlign=top;whiteSpace=wrap;rounded=1;fontSize=11;fontStyle=1;" parent="1" vertex="1">
                    <mxGeometry x="1520" y="995" width="240" height="20" as="geometry"/>
                </mxCell>
                <mxCell id="improvement10-detail" value="✓ Distributed tracing&#xa;✓ Metrics collection&#xa;✓ Log aggregation&#xa;✓ Alerting system" style="text;html=1;strokeColor=none;fillColor=none;align=left;verticalAlign=top;whiteSpace=wrap;rounded=0;fontSize=9;" parent="1" vertex="1">
                    <mxGeometry x="1530" y="1020" width="220" height="50" as="geometry"/>
                </mxCell>
                <mxCell id="migration-note" value="📋 MIGRATION STRATEGY" style="text;html=1;strokeColor=none;fillColor=#ffffcc;align=center;verticalAlign=middle;whiteSpace=wrap;rounded=1;fontSize=12;fontStyle=1;" parent="1" vertex="1">
                    <mxGeometry x="1520" y="1080" width="240" height="25" as="geometry"/>
                </mxCell>
                <mxCell id="migration-detail" value="• Incremental service migration&#xa;• Zero-downtime deployments&#xa;• Data migration strategies&#xa;• Backward compatibility&#xa;• Feature flag rollouts&#xa;• Performance testing" style="text;html=1;strokeColor=none;fillColor=none;align=left;verticalAlign=top;whiteSpace=wrap;rounded=0;fontSize=9;" parent="1" vertex="1">
                    <mxGeometry x="1530" y="1110" width="220" height="80" as="geometry"/>
                </mxCell>
                <mxCell id="timeline-note" value="⏱️ ESTIMATED TIMELINE: 12-18 MONTHS" style="text;html=1;strokeColor=none;fillColor=#ffcccc;align=center;verticalAlign=middle;whiteSpace=wrap;rounded=1;fontSize=11;fontStyle=1;" parent="1" vertex="1">
                    <mxGeometry x="1520" y="1200" width="240" height="25" as="geometry"/>
                </mxCell>
                <mxCell id="phases" value="Phase 1: Security &amp; Gateway (3mo)&#xa;Phase 2: Core Services (4mo)&#xa;Phase 3: AI Integration (4mo)&#xa;Phase 4: Analytics &amp; UI (3mo)" style="text;html=1;strokeColor=none;fillColor=none;align=left;verticalAlign=top;whiteSpace=wrap;rounded=0;fontSize=9;" parent="1" vertex="1">
                    <mxGeometry x="1530" y="1230" width="220" height="50" as="geometry"/>
                </mxCell>
            </root>
        </mxGraphModel>
    </diagram>
</mxfile>